<svg xmlns="http://www.w3.org/2000/svg" width="1600" height="900" viewBox="0 0 1600 900" role="img" aria-labelledby="title desc">
  <title id="title">Disboundia research note cover - libuipc FEM and hyperelastic models</title>
  <desc id="desc">A same-series cover for a research note about libuipc, FEM, ABD, Neo-Hookean materials, and neural IPC.</desc>
  <defs>
    <linearGradient id="bg" x1="0" y1="0" x2="1" y2="1">
      <stop offset="0" stop-color="#06121f"/>
      <stop offset="0.38" stop-color="#102a43"/>
      <stop offset="0.7" stop-color="#115e59"/>
      <stop offset="1" stop-color="#7c3aed"/>
    </linearGradient>
    <radialGradient id="halo" cx="77%" cy="23%" r="74%">
      <stop offset="0" stop-color="#5eead4" stop-opacity="0.5"/>
      <stop offset="0.44" stop-color="#a78bfa" stop-opacity="0.24"/>
      <stop offset="1" stop-color="#020617" stop-opacity="0"/>
    </radialGradient>
    <filter id="glow" x="-40%" y="-40%" width="180%" height="180%">
      <feGaussianBlur stdDeviation="11" result="blur"/>
      <feMerge><feMergeNode in="blur"/><feMergeNode in="SourceGraphic"/></feMerge>
    </filter>
    <pattern id="grid" width="64" height="64" patternUnits="userSpaceOnUse">
      <path d="M64 0H0V64" fill="none" stroke="#ffffff" stroke-opacity="0.055"/>
      <circle cx="0" cy="0" r="2" fill="#ffffff" fill-opacity="0.15"/>
    </pattern>
  </defs>
  <rect width="1600" height="900" fill="url(#bg)"/>
  <rect width="1600" height="900" fill="url(#halo)"/>
  <rect width="1600" height="900" fill="url(#grid)"/>
  <path d="M1054 90c182 16 324 120 368 268 46 154-38 316-188 382-144 62-330 22-444-100-112-120-132-286-48-406 72-102 188-154 312-144Z" fill="#020617" fill-opacity="0.22"/>
  <g opacity="0.28" stroke="#ffffff" stroke-width="2">
    <path d="M92 708c220-86 378-26 540-144 138-100 222-260 424-256 166 4 264 108 434 76" fill="none"/>
    <path d="M118 766c218-82 382-30 548-146 130-90 232-220 416-216 148 4 246 80 386 58" fill="none" opacity="0.5"/>
  </g>
  <g transform="translate(940 182)" filter="url(#glow)">
    <path d="M240 16 454 140v248L240 512 26 388V140Z" fill="#020617" fill-opacity="0.54" stroke="#5eead4" stroke-opacity="0.55"/>
    <g stroke="#a7f3d0" stroke-opacity="0.62" stroke-width="5" fill="none">
      <path d="M240 16v248M26 140l214 124 214-124M26 388l214-124 214 124"/>
      <path d="M134 78v248M346 78v248M134 450V202M346 450V202"/>
      <path d="M76 264h328"/>
    </g>
    <g fill="#f8fafc">
      <circle cx="240" cy="16" r="12"/><circle cx="454" cy="140" r="12"/><circle cx="454" cy="388" r="12"/>
      <circle cx="240" cy="512" r="12"/><circle cx="26" cy="388" r="12"/><circle cx="26" cy="140" r="12"/>
      <circle cx="240" cy="264" r="14"/>
    </g>
    <rect x="-76" y="370" width="210" height="92" rx="20" fill="#0f172a" fill-opacity="0.82" stroke="#c4b5fd" stroke-opacity="0.52"/>
    <text x="-48" y="426" font-size="34" font-family="'Segoe UI',Arial,sans-serif" fill="#ddd6fe">Psi(F)</text>
    <rect x="340" y="58" width="210" height="92" rx="20" fill="#0f172a" fill-opacity="0.82" stroke="#67e8f9" stroke-opacity="0.52"/>
    <text x="370" y="114" font-size="34" font-family="'Segoe UI',Arial,sans-serif" fill="#cffafe">IPC</text>
  </g>
  <g font-family="'PingFang SC','Microsoft YaHei','Segoe UI',Arial,sans-serif" fill="#fff">
    <text x="112" y="140" font-size="30" letter-spacing="6" opacity="0.78">DISBOUNDIA</text>
    <rect x="112" y="184" width="292" height="48" rx="24" fill="#5eead4" fill-opacity="0.18" stroke="#99f6e4" stroke-opacity="0.44"/>
    <text x="136" y="217" font-size="24" fill="#ccfbf1">科研笔记 / IPC</text>
    <text x="112" y="335" font-size="78" font-weight="800">从 libuipc 到</text>
    <text x="112" y="430" font-size="78" font-weight="800">Neo-Hookean</text>
    <text x="116" y="510" font-size="30" fill="#dbeafe">FEM、ABD、超弹性材料与 Neural IPC 路线整理</text>
    <text x="116" y="790" font-size="26" fill="#ccfbf1">2026-06-24</text>
  </g>
</svg>
