<svg xmlns="http://www.w3.org/2000/svg" width="1600" height="900" viewBox="0 0 1600 900" role="img" aria-labelledby="title desc">
  <title id="title">IPC and MolmoMotion visualization cover</title>
  <desc id="desc">A research cover showing contact simulation and 3D motion prediction as connected geometric trajectories.</desc>
  <defs>
    <linearGradient id="bg" x1="0" y1="0" x2="1" y2="1">
      <stop offset="0" stop-color="#07141d"/>
      <stop offset="0.42" stop-color="#123b3a"/>
      <stop offset="0.72" stop-color="#27326b"/>
      <stop offset="1" stop-color="#7c3aed"/>
    </linearGradient>
    <radialGradient id="light" cx="74%" cy="26%" r="72%">
      <stop offset="0" stop-color="#99f6e4" stop-opacity="0.46"/>
      <stop offset="0.48" stop-color="#c4b5fd" stop-opacity="0.22"/>
      <stop offset="1" stop-color="#020617" stop-opacity="0"/>
    </radialGradient>
    <pattern id="grid" width="70" height="70" patternUnits="userSpaceOnUse">
      <path d="M70 0H0V70" fill="none" stroke="#ffffff" stroke-opacity="0.055"/>
      <circle cx="0" cy="0" r="2" fill="#ffffff" fill-opacity="0.15"/>
    </pattern>
    <filter id="soft-glow" x="-30%" y="-30%" width="160%" height="160%">
      <feGaussianBlur stdDeviation="9" result="blur"/>
      <feMerge>
        <feMergeNode in="blur"/>
        <feMergeNode in="SourceGraphic"/>
      </feMerge>
    </filter>
  </defs>
  <rect width="1600" height="900" fill="url(#bg)"/>
  <rect width="1600" height="900" fill="url(#light)"/>
  <rect width="1600" height="900" fill="url(#grid)"/>
  <path d="M874 124c238 14 434 166 474 368 42 216-122 364-352 318-244-48-424-230-426-430-2-166 116-266 304-256Z" fill="#020617" fill-opacity="0.24"/>
  <g transform="translate(920 176)" filter="url(#soft-glow)">
    <path d="M244 18 462 144v252L244 522 26 396V144Z" fill="#02111b" fill-opacity="0.56" stroke="#5eead4" stroke-opacity="0.62" stroke-width="3"/>
    <g stroke="#a7f3d0" stroke-width="5" stroke-opacity="0.62" fill="none">
      <path d="M244 18v252M26 144l218 126 218-126M26 396l218-126 218 126"/>
      <path d="M128 86v252M360 86v252M128 454V206M360 454V206"/>
      <path d="M76 270h336"/>
    </g>
    <g fill="#f8fafc">
      <circle cx="244" cy="18" r="12"/>
      <circle cx="462" cy="144" r="12"/>
      <circle cx="462" cy="396" r="12"/>
      <circle cx="244" cy="522" r="12"/>
      <circle cx="26" cy="396" r="12"/>
      <circle cx="26" cy="144" r="12"/>
      <circle cx="244" cy="270" r="14"/>
    </g>
    <path d="M-76 408C22 336 94 350 154 284c54-60 86-148 176-142 76 6 116 70 194 38" fill="none" stroke="#fbbf24" stroke-width="10" stroke-linecap="round" stroke-opacity="0.82"/>
    <g fill="#fde68a">
      <circle cx="-76" cy="408" r="14"/>
      <circle cx="154" cy="284" r="14"/>
      <circle cx="330" cy="142" r="14"/>
      <circle cx="524" cy="180" r="14"/>
    </g>
    <rect x="-86" y="42" width="206" height="78" rx="8" fill="#0f172a" fill-opacity="0.84" stroke="#5eead4" stroke-opacity="0.48"/>
    <text x="-50" y="92" font-size="32" font-family="'Segoe UI',Arial,sans-serif" fill="#ccfbf1">IPC</text>
    <rect x="344" y="432" width="292" height="78" rx="8" fill="#0f172a" fill-opacity="0.84" stroke="#c4b5fd" stroke-opacity="0.52"/>
    <text x="374" y="482" font-size="32" font-family="'Segoe UI',Arial,sans-serif" fill="#ede9fe">MolmoMotion</text>
  </g>
  <g opacity="0.28" stroke="#ffffff" stroke-width="2" fill="none">
    <path d="M90 710c222-84 386-26 548-140 138-98 222-252 426-248 166 4 262 104 434 74"/>
    <path d="M120 770c222-80 388-30 552-144 134-92 230-218 418-214 146 4 246 78 388 56" opacity="0.55"/>
  </g>
  <g font-family="'PingFang SC','Microsoft YaHei','Segoe UI',Arial,sans-serif" fill="#fff">
    <text x="112" y="140" font-size="30" letter-spacing="6" opacity="0.78">DISBOUNDIA</text>
    <rect x="112" y="184" width="304" height="48" rx="8" fill="#5eead4" fill-opacity="0.18" stroke="#99f6e4" stroke-opacity="0.44"/>
    <text x="136" y="217" font-size="24" fill="#ccfbf1">科研可视化 / 3D Motion</text>
    <text x="112" y="334" font-size="76" font-weight="800">IPC 与</text>
    <text x="112" y="426" font-size="76" font-weight="800">MolmoMotion</text>
    <text x="116" y="506" font-size="30" fill="#dbeafe">从物理接触求解到语言条件 3D 运动预测</text>
    <text x="116" y="790" font-size="26" fill="#ccfbf1">2026-07-01</text>
  </g>
</svg>
