<svg xmlns="http://www.w3.org/2000/svg" width="1600" height="900" viewBox="0 0 1600 900" role="img" aria-labelledby="title desc">
  <title id="title">Disboundia article cover - blog completion and UI repair</title>
  <desc id="desc">A same-series cover for a Disboundia development log about blog completion, local search, analytics, covers, and UI polish.</desc>
  <defs>
    <linearGradient id="bg" x1="0" y1="0" x2="1" y2="1">
      <stop offset="0" stop-color="#07111f"/>
      <stop offset="0.38" stop-color="#14314a"/>
      <stop offset="0.7" stop-color="#0f766e"/>
      <stop offset="1" stop-color="#f59e0b"/>
    </linearGradient>
    <radialGradient id="halo" cx="78%" cy="22%" r="72%">
      <stop offset="0" stop-color="#facc15" stop-opacity="0.5"/>
      <stop offset="0.42" stop-color="#22d3ee" stop-opacity="0.24"/>
      <stop offset="1" stop-color="#020617" stop-opacity="0"/>
    </radialGradient>
    <filter id="glow" x="-40%" y="-40%" width="180%" height="180%">
      <feGaussianBlur stdDeviation="11" result="blur"/>
      <feMerge><feMergeNode in="blur"/><feMergeNode in="SourceGraphic"/></feMerge>
    </filter>
    <pattern id="grid" width="64" height="64" patternUnits="userSpaceOnUse">
      <path d="M64 0H0V64" fill="none" stroke="#ffffff" stroke-opacity="0.055"/>
      <circle cx="0" cy="0" r="2" fill="#ffffff" fill-opacity="0.15"/>
    </pattern>
  </defs>
  <rect width="1600" height="900" fill="url(#bg)"/>
  <rect width="1600" height="900" fill="url(#halo)"/>
  <rect width="1600" height="900" fill="url(#grid)"/>
  <path d="M1048 96c188 8 334 108 382 258 50 158-34 330-190 394-146 60-330 18-446-104-112-118-136-282-54-402 72-104 190-152 308-146Z" fill="#020617" fill-opacity="0.22"/>
  <g opacity="0.28" stroke="#ffffff" stroke-width="2">
    <path d="M90 716c222-90 384-30 548-146 140-99 224-260 430-256 166 4 268 110 440 78" fill="none"/>
    <path d="M118 772c222-82 382-30 550-144 134-90 232-224 420-220 150 2 250 80 392 58" fill="none" opacity="0.52"/>
  </g>
  <g transform="translate(914 176)" filter="url(#glow)">
    <rect x="34" y="48" width="456" height="318" rx="30" fill="#020617" fill-opacity="0.56" stroke="#67e8f9" stroke-opacity="0.54"/>
    <rect x="74" y="96" width="166" height="96" rx="18" fill="#38bdf8" fill-opacity="0.18" stroke="#93c5fd" stroke-opacity="0.5"/>
    <rect x="274" y="96" width="166" height="96" rx="18" fill="#facc15" fill-opacity="0.18" stroke="#fde68a" stroke-opacity="0.52"/>
    <rect x="74" y="226" width="166" height="96" rx="18" fill="#34d399" fill-opacity="0.18" stroke="#86efac" stroke-opacity="0.52"/>
    <rect x="274" y="226" width="166" height="96" rx="18" fill="#f472b6" fill-opacity="0.16" stroke="#f9a8d4" stroke-opacity="0.5"/>
    <path d="M112 144h90M112 274h90M314 144h90M314 274h90" stroke="#ffffff" stroke-opacity="0.65" stroke-width="11" stroke-linecap="round"/>
    <circle cx="104" cy="144" r="10" fill="#67e8f9"/>
    <circle cx="306" cy="144" r="10" fill="#facc15"/>
    <circle cx="104" cy="274" r="10" fill="#86efac"/>
    <circle cx="306" cy="274" r="10" fill="#f9a8d4"/>
    <g transform="translate(260 390)">
      <circle cx="0" cy="0" r="78" fill="#0f172a" fill-opacity="0.8" stroke="#facc15" stroke-opacity="0.55"/>
      <path d="M-40 0h80M0-40v80" stroke="#fde68a" stroke-width="12" stroke-linecap="round"/>
      <path d="M-126 0h-86M126 0h86M0-126v-64M0 126v64" stroke="#67e8f9" stroke-width="8" stroke-linecap="round" opacity="0.6"/>
      <circle cx="-226" cy="0" r="14" fill="#67e8f9"/>
      <circle cx="226" cy="0" r="14" fill="#67e8f9"/>
      <circle cx="0" cy="-202" r="14" fill="#67e8f9"/>
      <circle cx="0" cy="202" r="14" fill="#67e8f9"/>
    </g>
  </g>
  <g font-family="'PingFang SC','Microsoft YaHei','Segoe UI',Arial,sans-serif" fill="#fff">
    <text x="112" y="140" font-size="30" letter-spacing="6" opacity="0.78">DISBOUNDIA</text>
    <rect x="112" y="184" width="286" height="48" rx="24" fill="#facc15" fill-opacity="0.18" stroke="#fde68a" stroke-opacity="0.44"/>
    <text x="136" y="217" font-size="24" fill="#fef3c7">开发日志 / POLISH</text>
    <text x="112" y="335" font-size="78" font-weight="800">博客完整度与</text>
    <text x="112" y="430" font-size="78" font-weight="800">体验修复</text>
    <text x="116" y="510" font-size="30" fill="#dbeafe">搜索、统计、封面、字体与页面数据整理</text>
    <text x="116" y="790" font-size="26" fill="#fef3c7">2026-06-23</text>
  </g>
</svg>
