<svg xmlns="http://www.w3.org/2000/svg" width="1600" height="900" viewBox="0 0 1600 900" role="img" aria-labelledby="title desc">
  <title id="title">Disboundia C++ virtual dispatch cover</title>
  <desc id="desc">A same-series cover for a C++ article about virtual functions, vtable, vptr, and dynamic dispatch.</desc>
  <defs>
    <linearGradient id="bg" x1="0" y1="0" x2="1" y2="1">
      <stop offset="0" stop-color="#07111f"/>
      <stop offset="0.36" stop-color="#143047"/>
      <stop offset="0.68" stop-color="#0f766e"/>
      <stop offset="1" stop-color="#f59e0b"/>
    </linearGradient>
    <radialGradient id="halo" cx="78%" cy="20%" r="78%">
      <stop offset="0" stop-color="#fbbf24" stop-opacity="0.46"/>
      <stop offset="0.48" stop-color="#2dd4bf" stop-opacity="0.22"/>
      <stop offset="1" stop-color="#020617" stop-opacity="0"/>
    </radialGradient>
    <filter id="glow" x="-35%" y="-35%" width="170%" height="170%">
      <feGaussianBlur stdDeviation="10" result="blur"/>
      <feMerge><feMergeNode in="blur"/><feMergeNode in="SourceGraphic"/></feMerge>
    </filter>
    <pattern id="grid" width="64" height="64" patternUnits="userSpaceOnUse">
      <path d="M64 0H0V64" fill="none" stroke="#ffffff" stroke-opacity="0.055"/>
      <circle cx="0" cy="0" r="2" fill="#ffffff" fill-opacity="0.15"/>
    </pattern>
  </defs>
  <rect width="1600" height="900" fill="url(#bg)"/>
  <rect width="1600" height="900" fill="url(#halo)"/>
  <rect width="1600" height="900" fill="url(#grid)"/>
  <path d="M1050 90c182 18 328 122 372 272 46 158-40 320-194 386-148 62-336 20-450-102-112-120-134-286-50-408 72-104 194-160 322-148Z" fill="#020617" fill-opacity="0.24"/>
  <g opacity="0.3" stroke="#ffffff" stroke-width="2">
    <path d="M82 720c224-84 382-28 548-144 144-100 226-252 426-250 166 2 270 104 454 78" fill="none"/>
    <path d="M116 774c222-76 382-30 550-140 134-88 236-218 422-216 152 2 252 78 392 58" fill="none" opacity="0.55"/>
  </g>
  <g transform="translate(860 178)" filter="url(#glow)" font-family="'Segoe UI',Arial,sans-serif">
    <rect x="0" y="88" width="262" height="318" rx="22" fill="#020617" fill-opacity="0.64" stroke="#5eead4" stroke-opacity="0.62"/>
    <rect x="28" y="128" width="206" height="58" rx="12" fill="#14b8a6" fill-opacity="0.22" stroke="#99f6e4" stroke-opacity="0.58"/>
    <text x="58" y="166" font-size="28" fill="#ccfbf1" font-weight="700">vptr</text>
    <path d="M54 232h152M54 286h152M54 340h116" stroke="#e0f2fe" stroke-width="10" stroke-linecap="round" opacity="0.72"/>
    <text x="46" y="454" font-size="28" fill="#f8fafc" opacity="0.9">Dog object</text>
    <rect x="472" y="0" width="318" height="496" rx="26" fill="#020617" fill-opacity="0.66" stroke="#fbbf24" stroke-opacity="0.64"/>
    <text x="520" y="62" font-size="34" fill="#fef3c7" font-weight="800">Dog vtable</text>
    <g fill="#0f172a" stroke="#fbbf24" stroke-opacity="0.5">
      <rect x="512" y="104" width="238" height="70" rx="14"/>
      <rect x="512" y="204" width="238" height="70" rx="14"/>
      <rect x="512" y="304" width="238" height="70" rx="14"/>
    </g>
    <g fill="#f8fafc" font-size="26">
      <text x="544" y="148">&amp;Dog::speak</text>
      <text x="544" y="248">&amp;Dog::move</text>
      <text x="544" y="348">&amp;Dog::~Dog</text>
    </g>
    <path d="M234 158C318 138 386 126 512 138" fill="none" stroke="#5eead4" stroke-width="12" stroke-linecap="round"/>
    <path d="M512 138l-36-22 8 42Z" fill="#5eead4"/>
    <path d="M632 174v84" stroke="#fbbf24" stroke-width="12" stroke-linecap="round"/>
    <path d="M632 258l-24-32h48Z" fill="#fbbf24"/>
    <rect x="506" y="424" width="252" height="82" rx="18" fill="#134e4a" fill-opacity="0.72" stroke="#99f6e4" stroke-opacity="0.52"/>
    <text x="546" y="475" font-size="30" fill="#ccfbf1" font-weight="700">dynamic call</text>
    <path d="M36 34 130 34 130 84" fill="none" stroke="#e0f2fe" stroke-width="9" stroke-linecap="round"/>
    <text x="28" y="24" font-size="26" fill="#e0f2fe">Animal* p</text>
  </g>
  <g font-family="'PingFang SC','Microsoft YaHei','Segoe UI',Arial,sans-serif" fill="#fff">
    <text x="112" y="140" font-size="30" letter-spacing="6" opacity="0.78">DISBOUNDIA</text>
    <rect x="112" y="184" width="260" height="48" rx="24" fill="#5eead4" fill-opacity="0.18" stroke="#99f6e4" stroke-opacity="0.44"/>
    <text x="136" y="217" font-size="24" fill="#ccfbf1">C++ / OOP</text>
    <text x="112" y="335" font-size="80" font-weight="800">Virtual Function</text>
    <text x="112" y="430" font-size="80" font-weight="800">vtable &amp; vptr</text>
    <text x="116" y="510" font-size="30" fill="#dbeafe">How dynamic dispatch finds the real function at runtime</text>
    <text x="116" y="790" font-size="26" fill="#fef3c7">2026-06-30</text>
  </g>
</svg>
