<svg xmlns="http://www.w3.org/2000/svg" width="1600" height="900" viewBox="0 0 1600 900" role="img" aria-labelledby="title desc">
  <title id="title">Disboundia article cover - Linux virtual machine setup</title>
  <desc id="desc">A same-series cover for a Linux virtual machine setup article, with terminal and virtual machine motifs.</desc>
  <defs>
    <linearGradient id="bg" x1="0" y1="0" x2="1" y2="1">
      <stop offset="0" stop-color="#06111d"/>
      <stop offset="0.36" stop-color="#123052"/>
      <stop offset="0.7" stop-color="#155e75"/>
      <stop offset="1" stop-color="#22c55e"/>
    </linearGradient>
    <radialGradient id="halo" cx="78%" cy="20%" r="74%">
      <stop offset="0" stop-color="#86efac" stop-opacity="0.5"/>
      <stop offset="0.48" stop-color="#38bdf8" stop-opacity="0.22"/>
      <stop offset="1" stop-color="#020617" stop-opacity="0"/>
    </radialGradient>
    <filter id="glow" x="-40%" y="-40%" width="180%" height="180%">
      <feGaussianBlur stdDeviation="11" result="blur"/>
      <feMerge><feMergeNode in="blur"/><feMergeNode in="SourceGraphic"/></feMerge>
    </filter>
    <pattern id="grid" width="64" height="64" patternUnits="userSpaceOnUse">
      <path d="M64 0H0V64" fill="none" stroke="#ffffff" stroke-opacity="0.055"/>
      <circle cx="0" cy="0" r="2" fill="#ffffff" fill-opacity="0.15"/>
    </pattern>
  </defs>
  <rect width="1600" height="900" fill="url(#bg)"/>
  <rect width="1600" height="900" fill="url(#halo)"/>
  <rect width="1600" height="900" fill="url(#grid)"/>
  <path d="M1074 92c176 8 326 108 374 256 50 154-30 324-184 392-144 64-334 24-448-96-112-118-136-282-54-402 70-102 184-156 312-150Z" fill="#020617" fill-opacity="0.24"/>
  <g opacity="0.3" stroke="#ffffff" stroke-width="2">
    <path d="M78 716c226-86 372-28 540-144 146-101 222-258 428-256 166 2 266 106 448 76" fill="none"/>
    <path d="M112 770c218-76 378-28 546-142 132-90 232-222 418-220 150 2 250 78 390 58" fill="none" opacity="0.5"/>
  </g>
  <g transform="translate(928 220)" filter="url(#glow)">
    <rect x="0" y="0" width="470" height="312" rx="28" fill="#020617" fill-opacity="0.56" stroke="#86efac" stroke-opacity="0.55"/>
    <rect x="34" y="42" width="402" height="220" rx="18" fill="#0f172a" fill-opacity="0.92" stroke="#67e8f9" stroke-opacity="0.32"/>
    <circle cx="64" cy="72" r="8" fill="#fb7185"/>
    <circle cx="92" cy="72" r="8" fill="#facc15"/>
    <circle cx="120" cy="72" r="8" fill="#4ade80"/>
    <path d="M72 132 118 164 72 196" fill="none" stroke="#86efac" stroke-width="13" stroke-linecap="round" stroke-linejoin="round"/>
    <path d="M150 196h142" stroke="#e0f2fe" stroke-width="13" stroke-linecap="round"/>
    <rect x="78" y="296" width="314" height="28" rx="14" fill="#38bdf8" fill-opacity="0.2"/>
    <path d="M-84 368h638l62 78H-146Z" fill="#0f172a" fill-opacity="0.82" stroke="#67e8f9" stroke-opacity="0.42"/>
    <path d="M54 382h360" stroke="#86efac" stroke-width="9" stroke-linecap="round" opacity="0.52"/>
    <g transform="translate(318 114)">
      <circle cx="64" cy="64" r="58" fill="#f97316" fill-opacity="0.18" stroke="#fdba74" stroke-width="8"/>
      <circle cx="64" cy="22" r="18" fill="#fdba74"/>
      <circle cx="28" cy="84" r="18" fill="#fdba74"/>
      <circle cx="100" cy="84" r="18" fill="#fdba74"/>
      <path d="M64 44v40M46 74l-18 10M82 74l18 10" stroke="#fdba74" stroke-width="8" stroke-linecap="round"/>
    </g>
  </g>
  <g font-family="'PingFang SC','Microsoft YaHei','Segoe UI',Arial,sans-serif" fill="#fff">
    <text x="112" y="140" font-size="30" letter-spacing="6" opacity="0.78">DISBOUNDIA</text>
    <rect x="112" y="184" width="250" height="48" rx="24" fill="#86efac" fill-opacity="0.18" stroke="#86efac" stroke-opacity="0.44"/>
    <text x="136" y="217" font-size="24" fill="#dcfce7">技术笔记 / LINUX</text>
    <text x="112" y="335" font-size="78" font-weight="800">Windows 上配置</text>
    <text x="112" y="430" font-size="78" font-weight="800">Ubuntu 虚拟机</text>
    <text x="116" y="510" font-size="30" fill="#dbeafe">从虚拟机选择、系统安装到开发环境准备</text>
    <text x="116" y="790" font-size="26" fill="#bbf7d0">2026-06-20</text>
  </g>
</svg>
