<svg xmlns="http://www.w3.org/2000/svg" width="1600" height="900" viewBox="0 0 1600 900" role="img" aria-labelledby="title desc">
  <title id="title">Disboundia default article cover</title>
  <desc id="desc">A same-series default cover for uncategorized Disboundia posts.</desc>
  <defs>
    <linearGradient id="bg" x1="0" y1="0" x2="1" y2="1">
      <stop offset="0" stop-color="#08111f"/>
      <stop offset="0.45" stop-color="#162456"/>
      <stop offset="0.75" stop-color="#4338ca"/>
      <stop offset="1" stop-color="#7dd3fc"/>
    </linearGradient>
    <radialGradient id="halo" cx="70%" cy="28%" r="70%">
      <stop offset="0" stop-color="#c4b5fd" stop-opacity="0.48"/>
      <stop offset="0.5" stop-color="#38bdf8" stop-opacity="0.22"/>
      <stop offset="1" stop-color="#020617" stop-opacity="0"/>
    </radialGradient>
    <pattern id="grid" width="64" height="64" patternUnits="userSpaceOnUse">
      <path d="M64 0H0V64" fill="none" stroke="#ffffff" stroke-opacity="0.05"/>
      <circle cx="0" cy="0" r="2" fill="#ffffff" fill-opacity="0.14"/>
    </pattern>
  </defs>
  <rect width="1600" height="900" fill="url(#bg)"/>
  <rect width="1600" height="900" fill="url(#halo)"/>
  <rect width="1600" height="900" fill="url(#grid)"/>
  <path d="M935 160c210 30 384 182 412 376 30 214-136 340-336 310-222-34-402-212-404-400-2-196 136-316 328-286Z" fill="#020617" fill-opacity="0.24"/>
  <g transform="translate(1010 245)" fill="none" stroke="#fff" stroke-opacity="0.5" stroke-width="8">
    <path d="M68 312 210 70l142 242H68Z"/>
    <path d="M210 70v390M68 312l142 148 142-148"/>
    <circle cx="210" cy="70" r="20" fill="#67e8f9" stroke="none"/>
    <circle cx="68" cy="312" r="20" fill="#a78bfa" stroke="none"/>
    <circle cx="352" cy="312" r="20" fill="#f9a8d4" stroke="none"/>
    <circle cx="210" cy="460" r="20" fill="#fde68a" stroke="none"/>
  </g>
  <g font-family="'PingFang SC','Microsoft YaHei','Segoe UI',Arial,sans-serif" fill="#fff">
    <text x="112" y="140" font-size="30" letter-spacing="6" opacity="0.78">DISBOUNDIA</text>
    <rect x="112" y="184" width="238" height="48" rx="24" fill="#67e8f9" fill-opacity="0.18" stroke="#67e8f9" stroke-opacity="0.38"/>
    <text x="136" y="217" font-size="24" fill="#cffafe">文章 / DEFAULT</text>
    <text x="112" y="335" font-size="86" font-weight="800">Hello World</text>
    <text x="116" y="430" font-size="40" font-weight="600" fill="#e0f2fe">博客起点与默认记录</text>
    <text x="116" y="510" font-size="30" fill="#dbeafe">等待被真正的第一篇文章替换</text>
    <text x="116" y="790" font-size="26" fill="#bfdbfe">DISBOUNDIA</text>
  </g>
</svg>
